<?xml version="1.0" encoding="UTF-8"?>
<svg width="614px" height="431px" viewBox="0 0 614 431" version="1.1" xmlns="http://www.w3.org/2000/svg" xmlns:xlink="http://www.w3.org/1999/xlink">
    <title>Group 2</title>
    <defs>
        <linearGradient x1="50%" y1="100%" x2="50%" y2="0%" id="linearGradient-1">
            <stop stop-color="#808080" stop-opacity="0.25" offset="0%"></stop>
            <stop stop-color="#808080" stop-opacity="0.12" offset="54%"></stop>
            <stop stop-color="#808080" stop-opacity="0.1" offset="100%"></stop>
        </linearGradient>
        <linearGradient x1="50%" y1="62.5%" x2="50%" y2="38.5%" id="linearGradient-2">
            <stop stop-color="#808080" stop-opacity="0.25" offset="0%"></stop>
            <stop stop-color="#808080" stop-opacity="0.12" offset="54%"></stop>
            <stop stop-color="#808080" stop-opacity="0.1" offset="100%"></stop>
        </linearGradient>
        <linearGradient x1="50%" y1="100%" x2="50%" y2="0%" id="linearGradient-3">
            <stop stop-color="#808080" stop-opacity="0.25" offset="0%"></stop>
            <stop stop-color="#808080" stop-opacity="0.12" offset="54%"></stop>
            <stop stop-color="#808080" stop-opacity="0.1" offset="100%"></stop>
        </linearGradient>
        <linearGradient x1="49.9931063%" y1="100.089175%" x2="49.9931063%" y2="0.0172913958%" id="linearGradient-4">
            <stop stop-color="#808080" stop-opacity="0.25" offset="0%"></stop>
            <stop stop-color="#808080" stop-opacity="0.12" offset="54%"></stop>
            <stop stop-color="#808080" stop-opacity="0.1" offset="100%"></stop>
        </linearGradient>
        <linearGradient x1="29%" y1="49.5%" x2="71%" y2="49.5%" id="linearGradient-5">
            <stop stop-color="#808080" stop-opacity="0.25" offset="0%"></stop>
            <stop stop-color="#808080" stop-opacity="0.12" offset="54%"></stop>
            <stop stop-color="#808080" stop-opacity="0.1" offset="100%"></stop>
        </linearGradient>
        <linearGradient x1="30%" y1="49.5%" x2="71%" y2="49.5%" id="linearGradient-6">
            <stop stop-color="#808080" stop-opacity="0.25" offset="0%"></stop>
            <stop stop-color="#808080" stop-opacity="0.12" offset="54%"></stop>
            <stop stop-color="#808080" stop-opacity="0.1" offset="100%"></stop>
        </linearGradient>
    </defs>
    <g id="Page-2" stroke="none" stroke-width="1" fill="none" fill-rule="evenodd">
        <g id="Artboard" transform="translate(-1.000000, -86.000000)">
            <g id="Group-2" transform="translate(1.000000, 86.000000)">
                <g id="undraw-image-upload">
                    <path d="M66.5136993,280.668142 C51.443172,281.364191 35.3539217,284.684348 24.8577891,296.162205 C7.36204396,315.282687 14.6837044,350.036443 34.8215568,365.99686 C54.9594093,381.957277 82.8001217,382.451472 107.170604,375.82508 C120.269409,372.261306 133.755987,366.818198 146.927088,370.089631 C163.522414,374.210245 175.063559,391.152092 191.514292,395.892189 C213.617294,402.288885 234.767297,385.09646 256.061892,376.082618 C292.407298,360.679041 337.112805,370.792641 364.348856,400.576603 C371.95313,408.887435 378.466384,418.715655 387.963511,424.430222 C397.565797,430.214394 409.067507,431.084456 420.10915,430.99397 C453.280084,430.71555 485.93837,422.947636 518.294325,415.221486 C538.839667,410.349139 559.766208,405.254056 577.932339,393.964132 C596.098469,382.674208 611.399031,363.936553 613.771669,341.760413 C614.185731,337.897338 614.172586,333.818488 612.562347,330.317358 C609.900522,324.519265 603.676453,321.77683 597.978177,319.514669 C581.047659,312.79779 562.020543,306.094833 545.398928,313.695694 C541.041423,315.693357 536.999393,318.637646 532.34613,319.653879 C519.063297,322.542485 508.212254,309.449792 497.867287,300.164491 C465.846524,271.431564 419.182441,274.055671 378.315219,263.775019 C330.724426,251.844729 280.195768,242.086114 230.718694,249.680015 C205.82242,253.501327 186.683573,271.403722 162.898035,278.322455 C131.541086,287.440704 98.4293035,279.227319 66.5136993,280.668142 Z" id="Path" fill="#6C63FF" fill-rule="nonzero" opacity="0.5"></path>
                    <polygon id="Path" fill="url(#linearGradient-1)" fill-rule="nonzero" points="84 0 84 18.7190586 84 338 450 338 450 18.7190586 450 0"></polygon>
                    <rect id="Rectangle" fill="#535461" fill-rule="nonzero" x="87" y="0" width="361" height="11"></rect>
                    <rect id="Rectangle" fill="#EDEDF4" fill-rule="nonzero" x="87" y="10" width="361" height="321"></rect>
                    <circle id="Oval" fill="#FA595F" fill-rule="nonzero" cx="94" cy="5" r="2"></circle>
                    <circle id="Oval" fill="#FFC74C" fill-rule="nonzero" cx="99" cy="5" r="2"></circle>
                    <circle id="Oval" fill="#85D459" fill-rule="nonzero" cx="104" cy="5" r="2"></circle>
                    <rect id="Rectangle" fill="#FFFFFF" fill-rule="nonzero" x="129" y="29" width="277" height="115"></rect>
                    <polyline id="Path" stroke="#6C63FF" points="406 140 406 144 402 144"></polyline>
                    <line x1="394" y1="144.5" x2="137" y2="144.5" id="Path" stroke="#6C63FF" stroke-dasharray="11.69"></line>
                    <polyline id="Path" stroke="#6C63FF" points="133 144 129 144 129 140"></polyline>
                    <line x1="129.5" y1="132" x2="129.5" y2="38" id="Path" stroke="#6C63FF" stroke-dasharray="11.79"></line>
                    <polyline id="Path" stroke="#6C63FF" points="129 33 129 29 133 29"></polyline>
                    <line x1="141" y1="29.5" x2="398" y2="29.5" id="Path" stroke="#6C63FF" stroke-dasharray="11.69"></line>
                    <polyline id="Path" stroke="#6C63FF" points="402 29 406 29 406 33"></polyline>
                    <line x1="405.5" y1="42" x2="405.5" y2="136" id="Path" stroke="#6C63FF" stroke-dasharray="11.79"></line>
                    <rect id="Rectangle" fill="#FFFFFF" fill-rule="nonzero" x="197" y="161" width="141" height="6"></rect>
                    <rect id="Rectangle" fill="#FFFFFF" fill-rule="nonzero" x="126" y="218" width="141" height="6"></rect>
                    <rect id="Rectangle" fill="#FFFFFF" fill-rule="nonzero" x="126" y="232" width="141" height="6"></rect>
                    <rect id="Rectangle" fill="#FFFFFF" fill-rule="nonzero" x="126" y="245" width="141" height="6"></rect>
                    <rect id="Rectangle" fill="#FFFFFF" fill-rule="nonzero" x="126" y="259" width="141" height="6"></rect>
                    <rect id="Rectangle" fill="#FFFFFF" fill-rule="nonzero" x="126" y="273" width="141" height="6"></rect>
                    <rect id="Rectangle" fill="#FFFFFF" fill-rule="nonzero" x="126" y="286" width="141" height="6"></rect>
                    <rect id="Rectangle" fill="#FFFFFF" fill-rule="nonzero" x="126" y="300" width="141" height="6"></rect>
                    <rect id="Rectangle" fill="#FFFFFF" fill-rule="nonzero" x="237" y="173" width="61" height="6"></rect>
                    <path d="M267.000001,118 C283.016258,118 296.000001,104.120826 296.000001,87 C296.000001,69.8791724 283.016258,56 267.000001,56 C250.983743,56 238.000001,69.8791724 238.000001,87 C237.99827,95.2222776 241.053062,103.108324 246.491992,108.922353 C251.930922,114.736382 259.308192,118.00185 267.000001,118 L267.000001,118 Z M267.000001,62.000449 C276.459028,62.000449 284.986658,68.0913946 288.606471,77.4330859 C292.226284,86.7747772 290.225419,97.527529 283.536877,104.67735 C276.848335,111.827171 266.789309,113.966026 258.050308,110.096571 C249.311306,106.227116 243.613325,97.111373 243.613325,86.9999992 C243.611594,80.3691391 246.074984,74.0093302 250.461212,69.3206039 C254.847439,64.6318775 260.796938,61.9985986 267.000001,62.000449 L267.000001,62.000449 Z M269.33671,102.998873 L264.656764,102.998873 C263.883211,102.995054 263.257006,102.325663 263.253433,101.498761 L263.253433,86.9999992 L255.420888,86.9999992 C254.853407,86.9998415 254.341869,86.6343527 254.124723,86.0739022 C253.907578,85.5134517 254.027569,84.8683644 254.428765,84.4393421 L266.007878,72.0616696 C266.55275,71.494457 267.421143,71.494457 267.966015,72.0616696 L279.545128,84.4393421 C279.946324,84.8683644 280.066315,85.5134517 279.84917,86.0739022 C279.632024,86.6343527 279.120486,86.9998415 278.553005,86.9999992 L270.72046,86.9999992 L270.72046,101.498761 C270.717129,102.314955 270.106576,102.979988 269.343237,102.998873 L269.33671,102.998873 Z" id="Shape" fill="#6C63FF" fill-rule="nonzero" opacity="0.5"></path>
                    <path d="M97.8985902,246.068568 C105.151842,274.112755 74.2068308,354 74.2068308,354 C74.2068308,354 9.09900095,301.892046 1.84574869,273.833917 C-2.97094675,255.650702 1.79424216,236.132979 14.3334274,222.68567 C26.8726127,209.238362 45.2644553,203.921956 62.5311854,208.753469 C79.7979156,213.584982 93.2938077,227.824097 97.8985902,246.068568 Z" id="Path" fill="#6C63FF" fill-rule="nonzero"></path>
                    <path d="M97.8985902,246.068568 C105.151842,274.112755 74.2068308,354 74.2068308,354 C74.2068308,354 9.09900095,301.892046 1.84574869,273.833917 C-2.97094675,255.650702 1.79424216,236.132979 14.3334274,222.68567 C26.8726127,209.238362 45.2644553,203.921956 62.5311854,208.753469 C79.7979156,213.584982 93.2938077,227.824097 97.8985902,246.068568 Z" id="Path" fill="#000000" fill-rule="nonzero" opacity="0.1"></path>
                    <path d="M37,209 C37,209 77.9225205,273.763177 74.8335259,354" id="Path" stroke="#535461"></path>
                    <path d="M108.674902,297.588481 C108.674902,297.588481 71.7303657,276.62773 76.4097419,354 C76.4097419,354 107.229995,352.852413 118.166214,326.630735 C122.599686,316.070607 118.754521,303.720929 109.218399,297.892661 L108.674902,297.588481 Z" id="Path" fill="#6C63FF" fill-rule="nonzero"></path>
                    <path d="M109,297 C109,297 104.208711,337.679278 76,354" id="Path" stroke="#535461"></path>
                    <g id="Group" opacity="0.1" transform="translate(492.000000, 194.000000)" fill="url(#linearGradient-2)" fill-rule="nonzero">
                        <path d="M0.55,0.8 C0.61,0.725 0.64,0.675 0.64,0.675 L0.55,0.8 Z" id="Path"></path>
                    </g>
                    <polygon id="Path" fill="url(#linearGradient-3)" fill-rule="nonzero" points="307 49 307 169 336.83542 169 352.616355 169 360.690627 169 368.04281 169 378.677217 169 381.027289 169 403.812491 169 412.182163 169 418.464341 169 422.567121 169 422.685282 169 422.895344 169 425.908426 169 432.184039 169 434.626014 169 434.888592 169 434.947672 169 435.098654 169 435.420312 169 440.560276 169 440.895063 169 440.973836 169 450.932105 169 451.247198 169 451.641065 169 463.352042 169 466.844329 169 475.214001 169 493.594458 169 514.521921 169 514.521921 169 518.506541 169 519.241759 169 519.931026 169 519.931026 169 524.145403 169 524.755896 169 532.784217 169 543.359544 169 548.47325 169 558.943546 169 587 169 587 49"></polygon>
                    <path d="M509.975922,203.197804 C509.965831,201.060227 509.517607,198.950452 508.662219,197.01425 L500.497558,176.321254 C500.497558,176.321254 500.201974,176.752503 499.696199,177.343731 C499.098464,172.064409 496.825759,161.992658 488.247281,161.345784 C476.581602,160.448508 472.48285,166.743352 474.834378,167.341536 C477.185905,167.939721 487.084654,172.140921 487.084654,172.140921 L491.682613,180.132938 C491.597223,180.070338 491.5184,180.007737 491.43301,179.938181 L491.603791,180.668522 L491.43301,180.536365 L491.603791,181.266706 L491.43301,181.134549 L495.873325,200.540754 L486.808777,209.311802 C486.808777,209.311802 478.059518,213.812094 473.671751,213.485179 C472.841841,213.434192 472.009423,213.452798 471.182285,213.540825 L471.51071,213.311289 L474.400856,211.280245 C476.63415,209.715229 478.965972,208.025011 480.08262,205.493162 L480.08262,205.451428 C480.181147,205.270582 480.273107,205.08278 480.358497,204.894978 C481.534261,202.230972 481.127013,199.163539 481.18613,196.242175 C481.314975,194.467212 481.341298,192.685571 481.264952,190.907208 C481.069487,189.21569 480.610004,187.570311 479.90527,186.038267 C478.599639,182.925322 476.48283,180.271156 473.803121,178.387075 C471.054815,176.488413 467.707908,175.820601 464.495539,176.529922 C463.98143,176.696792 463.449634,176.794932 462.912527,176.822059 C461.874702,176.822059 460.981384,176.126496 460.02895,175.702203 C457.539155,174.705303 454.726599,175.55302 453.105737,177.788891 C452.448886,178.707034 452.113892,179.799068 451.450472,180.689389 C450.465195,182.017914 448.869047,182.852589 448.205627,184.375872 L448.139942,184.542807 C448.054482,184.681076 447.977685,184.825135 447.910044,184.974056 C447.253193,186.476472 447.686714,188.222335 447.548776,189.842996 C447.334133,191.302072 446.890081,192.712737 446.235073,194.016374 C446.511699,193.916998 446.774569,193.778987 447.016726,193.605992 C445.453999,197.2237 445.384976,201.367225 446.826239,205.041046 C446.44409,207.998739 445.572461,210.861917 444.251382,213.499091 L444.165991,213.582558 L444.12658,213.582558 L443.890114,213.777316 L443.890114,213.777316 L443.627373,213.965118 C443.929525,213.46895 444.277656,212.951915 444.671767,212.414013 C444.093738,213.151309 441.387511,215.968339 435.751727,212.54617 C429.33429,208.651017 414.174162,208.651017 414.174162,208.651017 L399.066582,201.479764 C399.34246,196.429977 400.62332,176.710769 403.664541,175.660469 C403.369775,175.780863 403.069426,175.885332 402.764655,175.973472 L402.764655,175.973472 L402.836909,175.848271 L402.909162,175.736981 L402.981416,175.632646 L403.060238,175.535267 L403.132492,175.4518 L403.211314,175.368332 L403.283568,175.305732 L403.368958,175.236175 L403.441212,175.187486 L403.533171,175.138797 L403.651404,175.083152 C403.651404,175.083152 403.336116,175.215309 402.823772,175.368332 L403.093081,174.89535 C403.241161,174.706514 403.433787,174.56253 403.651404,174.478012 C403.651404,174.478012 403.500329,174.540613 403.250725,174.631036 L407.152422,167.884076 C407.152422,167.884076 417.064308,163.710698 419.402698,163.084692 C421.741089,162.458685 417.655474,156.184708 405.989795,157.088939 C398.10758,157.701035 395.54586,166.27037 394.718227,171.751405 C394.685384,171.660982 394.645973,171.577515 394.613131,171.480136 L383,203.329961 C383,203.329961 383,203.476029 383.072254,203.733388 L383,203.928145 C383,203.928145 383,204.074213 383.072254,204.331572 L383,204.526329 C383,204.526329 383.873612,211.426313 390.291049,214.125097 L414.496019,229.427481 C414.496019,229.427481 425.00564,236.021418 425.00564,252.52017 C425.00564,269.018922 427.048447,295.102531 427.048447,295.102531 C427.048447,295.102531 427.449126,295.352933 428.1848,295.798093 C426.358753,301.188706 422.831462,310.815297 420.335427,312.491603 C416.83441,314.891295 408.085151,335.584292 408.085151,335.584292 L408.347891,335.584292 L408.091719,336.182476 C408.091719,336.182476 408.577789,336.182476 409.405422,336.182476 L402.265448,350.865808 C402.265448,350.865808 399.933626,357.459745 402.265448,361.660945 C404.59727,365.862145 404.012673,374.556681 404.012673,374.556681 C404.012673,374.556681 408.676317,388.648785 412.466349,395.249677 C414.390923,398.602291 414.739054,402.720023 414.607684,405.968302 L406.633509,419.837826 C406.633509,419.837826 402.843477,423.433886 399.927058,422.835702 C398.560807,422.557477 397.194556,424.379852 397.358769,426.216138 L397.358769,426.376117 C397.358769,426.427125 397.358769,426.475815 397.358769,426.522185 C397.358769,426.522185 397.358769,426.563919 397.358769,426.584786 C397.358769,426.605653 397.358769,426.696076 397.358769,426.744766 L397.358769,426.793455 C397.358769,426.863011 397.358769,426.932568 397.358769,427.002124 L397.358769,427.002124 C397.358769,427.062406 397.369717,427.125007 397.391612,427.189926 L397.391612,427.252527 L397.431023,427.398595 L397.431023,427.468151 L397.477002,427.614219 L397.477002,427.67682 L397.549256,427.850711 L397.549256,427.850711 L397.654352,428.045468 L397.654352,428.094158 L397.746311,428.240226 L397.792291,428.302827 L397.88425,428.428028 L397.936798,428.490628 L398.048463,428.622785 L398.094442,428.671475 L398.271792,428.845366 L398.271792,428.845366 L398.442574,428.991434 L398.508259,429.040123 L398.652766,429.144458 L398.731588,429.200103 L398.889233,429.297481 L398.974623,429.346171 L399.178247,429.457461 L399.230795,429.457461 L399.506673,429.582662 L399.585495,429.582662 L399.808824,429.66613 L399.920489,429.700908 L400.13725,429.770464 L400.255483,429.805242 L400.498518,429.867843 L400.610183,429.867843 L400.984588,429.944355 L400.984588,429.944355 L401.352425,430 L401.483795,430 L401.77281,430 L401.930454,430 L402.226037,430 L403.49376,430 L403.894439,430 L404.084926,430 L404.459331,430 L404.662955,430 L405.070203,429.958266 L405.26069,429.958266 L405.87813,429.874799 C417.832824,428.073291 431.830324,421.479354 431.830324,421.479354 L431.830324,421.479354 L431.830324,421.479354 L431.830324,421.479354 L431.830324,421.479354 C431.907305,420.600775 431.940194,419.718487 431.928852,418.836215 C431.968263,415.240155 431.390234,408.089769 426.431007,406.093503 L426.174835,406.093503 C424.953091,402.100972 423.961246,397.051185 424.82829,392.752607 C426.575514,384.05807 419.869063,368.171414 419.869063,362.76689 C419.869063,361.570522 418.410853,358.871738 421.327272,354.96963 C422.686955,353.15421 425.813567,350.038089 428.736555,346.622875 C428.431231,347.107996 428.097786,347.572596 427.738141,348.014001 C427.865158,348.052093 427.994706,348.079995 428.125683,348.097468 C428.000881,348.264403 427.87608,348.438294 427.738141,348.612185 C427.738141,348.612185 431.620132,349.94071 434.759881,344.070159 C434.950368,343.715422 435.140855,343.325907 435.324773,342.915525 C438.530207,335.716448 446.694869,325.526452 450.780484,326.124636 C454.544242,326.674131 463.024192,334.374012 464.777985,339.799403 C464.917153,340.228178 465.014008,340.671064 465.066999,341.120972 C465.651597,346.51854 473.231661,347.116724 473.231661,347.116724 L472.771865,346.462895 L473.060879,346.497673 C474.720903,349.213823 476.240465,352.023393 477.612859,354.913985 C479.944681,360.311553 479.655666,363.907613 479.655666,363.907613 C473.238229,377.700625 475.570051,386.09607 475.570051,394.512381 C475.547656,396.794092 475.327786,399.068827 474.9132,401.30803 C470.755331,404.027681 470.019658,416.102653 470.019658,416.102653 L470.059069,416.151343 L470.059069,416.151343 L470.059069,416.193076 L470.059069,416.353056 L470.059069,416.700837 C470.059069,416.700837 478.630978,426.111803 490.014211,427.301216 L490.546261,427.349905 L490.72361,427.349905 L491.058605,427.349905 L491.25566,427.349905 L491.551243,427.349905 L493.114549,427.349905 L493.344447,427.349905 L493.528365,427.349905 L493.751695,427.349905 L493.929045,427.349905 L494.145806,427.349905 L494.310018,427.349905 L494.513642,427.349905 L494.671287,427.349905 L494.868342,427.349905 L495.019418,427.349905 L495.209905,427.308172 L495.354412,427.308172 L495.53833,427.266438 L495.669701,427.23166 L495.84705,427.18297 L495.965284,427.148192 L496.136065,427.092547 L496.24773,427.050813 L496.411943,426.988213 L496.517039,426.946479 L496.674683,426.876923 L496.766642,426.835189 L496.924287,426.765632 L497.009677,426.723899 L497.160753,426.647387 L497.239575,426.605653 L497.384082,426.522185 L497.449768,426.480452 L497.587706,426.390029 L497.646823,426.348295 L497.778193,426.250916 L497.830741,426.209182 L497.955543,426.104848 L498.001523,426.07007 L498.119756,425.95878 L498.159167,425.924001 L498.2774,425.805756 L498.2774,425.805756 L498.389065,425.680554 L498.389065,425.680554 L498.494161,425.548397 L498.494161,425.548397 L498.592689,425.409285 L498.592689,425.409285 L498.678079,425.263217 L498.678079,425.263217 L498.756902,425.110193 L498.756902,425.110193 L498.829155,424.950213 L498.829155,424.950213 C499.017741,424.51549 499.090429,424.034418 499.039348,423.559088 C499.120215,422.831298 498.902633,422.101707 498.441708,421.5551 C497.980783,421.008492 497.320724,420.697295 496.628703,420.700324 C493.127686,420.700324 491.373893,416.526947 491.373893,416.526947 L485.199491,401.071539 L485.048415,401.029805 C485.311156,399.506522 485.541054,398.024973 485.639582,397.023363 C485.816931,395.16621 489.35736,385.950001 492.024176,379.203041 C493.631974,375.170509 494.635888,370.897068 494.999712,366.536841 C495.179568,364.273611 495.560027,362.033309 496.136065,359.845526 C496.859273,357.103649 496.783722,354.194414 495.919304,351.498771 C495.192266,349.185353 494.720573,346.790589 494.513642,344.362295 C494.204922,340.654945 492.766418,336.905861 491.347619,333.998408 L491.472421,333.998408 L491.281934,333.344579 L491.472421,333.393268 C491.472421,333.393268 485.639582,313.305412 482.723162,310.606628 C480.608101,308.652096 475.740833,299.477621 473.113428,293.739227 C473.631663,292.991028 474.113965,292.215652 474.5585,291.416047 L474.47311,290.963931 L474.5585,290.817863 L474.47311,290.365747 L474.5585,290.219679 C474.5585,290.219679 471.596101,274.666892 471.484436,263.496152 C471.517279,259.907048 471.891684,256.881349 472.798139,255.149397 C472.798139,255.149397 473.967334,236.257909 483.307759,232.661849 L507.532435,209.909986 C507.532435,209.909986 510.120429,208.240635 509.995627,203.795988 C509.98249,203.601231 509.98249,203.406473 509.975922,203.197804 Z M443.68649,214.605036 L443.68649,214.605036 L443.949231,214.180742 L443.68649,214.605036 Z M464.3576,215.300599 C464.3576,215.300599 464.31162,215.585779 464.193387,216.058762 C463.824125,215.369454 463.533092,214.636347 463.326343,213.874695 C464.09502,213.694185 464.848517,213.447603 465.579343,213.137398 C466.031793,213.681418 466.611849,214.089314 467.260883,214.319855 C466.276526,214.591646 465.307258,214.921391 464.3576,215.307554 L464.3576,215.300599 Z M470.203576,341.621778 C470.860428,342.658166 471.517279,343.764111 472.17413,344.890923 C471.550121,343.938002 470.788174,342.727723 470.203576,341.628733 L470.203576,341.621778 Z" id="Shape" fill="url(#linearGradient-4)" fill-rule="nonzero"></path>
                    <rect id="Rectangle" fill="#FFFFFF" fill-rule="nonzero" x="308" y="51" width="277" height="115"></rect>
                    <g id="Group" opacity="0.6" transform="translate(337.000000, 58.000000)" fill-rule="nonzero">
                        <polygon id="Path" fill="#6C63FF" opacity="0.3" points="219.802985 61.0165161 219.802985 107.72129 0.380895522 107.72129 0.380895522 36.8872258 7.26985075 36.8872258 7.26985075 18.8407742 33.4662687 18.8407742 33.4662687 36.8872258 40.5916418 36.8872258 40.5916418 90.9987097 49.7791045 90.9987097 49.7791045 73.4469677 60.8119403 73.4469677 60.8119403 90.9987097 69.999403 90.9987097 69.999403 61.0165161 70.4591045 61.0165161 70.4591045 45.4157419 79.1934328 45.4157419 79.1934328 61.0165161 99.4071642 61.0165161 99.4071642 84.4211613 110.663284 84.4211613 110.663284 77.1050323 117.565373 77.1050323 117.565373 84.4211613 128.821493 84.4211613 128.821493 15.1827097 143.525373 15.1827097 143.525373 4.21548387 146.053731 4.21548387 146.053731 15.1827097 150.184478 15.1827097 150.184478 36.8872258 157.539701 36.8872258 157.539701 18.8407742 163.739104 18.8407742 163.739104 0.313548387 176.610746 0.313548387 176.610746 18.8407742 182.810149 18.8407742 182.810149 36.8872258 190.395224 36.8872258 190.395224 61.0165161 200.73194 61.0165161 200.73194 45.4157419 209.466269 45.4157419 209.466269 61.0165161"></polygon>
                        <rect id="Rectangle" fill="#FFFFFF" opacity="0.4" x="4.7480597" y="42.4892903" width="9.64716418" height="5.85290323"></rect>
                        <rect id="Rectangle" fill="#FFFFFF" opacity="0.4" transform="translate(31.171045, 45.408774) rotate(-180.000000) translate(-31.171045, -45.408774) " x="26.3474627" y="42.4823226" width="9.64716418" height="5.85290323"></rect>
                        <rect id="Rectangle" fill="#FFFFFF" opacity="0.4" x="4.7480597" y="53.9442581" width="9.64716418" height="5.85290323"></rect>
                        <rect id="Rectangle" fill="#FFFFFF" opacity="0.4" transform="translate(31.171045, 56.870710) rotate(-180.000000) translate(-31.171045, -56.870710) " x="26.3474627" y="53.9442581" width="9.64716418" height="5.85290323"></rect>
                        <rect id="Rectangle" fill="#FFFFFF" opacity="0.4" x="4.7480597" y="65.4061935" width="9.64716418" height="5.85290323"></rect>
                        <rect id="Rectangle" fill="#FFFFFF" opacity="0.4" transform="translate(31.171045, 68.325677) rotate(-180.000000) translate(-31.171045, -68.325677) " x="26.3474627" y="65.3992258" width="9.64716418" height="5.85290323"></rect>
                        <rect id="Rectangle" fill="#FFFFFF" opacity="0.4" x="4.7480597" y="76.8611613" width="9.64716418" height="5.85290323"></rect>
                        <rect id="Rectangle" fill="#FFFFFF" opacity="0.4" transform="translate(31.171045, 79.787613) rotate(-180.000000) translate(-31.171045, -79.787613) " x="26.3474627" y="76.8611613" width="9.64716418" height="5.85290323"></rect>
                        <rect id="Rectangle" fill="#FFFFFF" opacity="0.4" x="4.7480597" y="88.3230968" width="9.64716418" height="5.85290323"></rect>
                        <rect id="Rectangle" fill="#FFFFFF" opacity="0.4" transform="translate(31.171045, 91.249548) rotate(-180.000000) translate(-31.171045, -91.249548) " x="26.3474627" y="88.3230968" width="9.64716418" height="5.85290323"></rect>
                        <rect id="Rectangle" fill="#FFFFFF" opacity="0.4" x="4.7480597" y="99.7780645" width="9.64716418" height="5.85290323"></rect>
                        <rect id="Rectangle" fill="#FFFFFF" opacity="0.4" transform="translate(31.171045, 102.697548) rotate(-180.000000) translate(-31.171045, -102.697548) " x="26.3474627" y="99.7710968" width="9.64716418" height="5.85290323"></rect>
                        <rect id="Rectangle" fill="#FFFFFF" opacity="0.4" x="44.0328358" y="96.8516129" width="22.518806" height="2.92645161"></rect>
                        <rect id="Rectangle" fill="#FFFFFF" opacity="0.4" x="44.0328358" y="101.24129" width="22.518806" height="2.92645161"></rect>
                        <rect id="Rectangle" fill="#FFFFFF" opacity="0.4" x="44.039403" y="105.624" width="22.5122388" height="2.09032258"></rect>
                        <rect id="Rectangle" fill="#FFFFFF" opacity="0.4" x="102.854925" y="98.3148387" width="22.518806" height="2.92645161"></rect>
                        <rect id="Rectangle" fill="#FFFFFF" opacity="0.4" x="102.854925" y="102.704516" width="22.518806" height="2.92645161"></rect>
                        <rect id="Rectangle" fill="#FFFFFF" opacity="0.4" x="102.854925" y="107.094194" width="22.5122388" height="1"></rect>
                        <rect id="Rectangle" fill="#FFFFFF" opacity="0.4" x="74.8262687" y="66.6255484" width="6.20597015" height="8.53548387"></rect>
                        <rect id="Rectangle" fill="#FFFFFF" opacity="0.4" transform="translate(91.477313, 70.893290) rotate(-180.000000) translate(-91.477313, -70.893290) " x="88.3743284" y="66.6255484" width="6.20597015" height="8.53548387"></rect>
                        <rect id="Rectangle" fill="#FFFFFF" opacity="0.4" x="74.8262687" y="80.2753548" width="6.20597015" height="8.53548387"></rect>
                        <rect id="Rectangle" fill="#FFFFFF" opacity="0.4" transform="translate(91.477313, 84.536129) rotate(-180.000000) translate(-91.477313, -84.536129) " x="88.3743284" y="80.2683871" width="6.20597015" height="8.53548387"></rect>
                        <rect id="Rectangle" fill="#FFFFFF" opacity="0.4" x="74.8262687" y="93.9251613" width="6.20597015" height="8.53548387"></rect>
                        <rect id="Rectangle" fill="#FFFFFF" opacity="0.4" transform="translate(91.477313, 98.192903) rotate(-180.000000) translate(-91.477313, -98.192903) " x="88.3743284" y="93.9251613" width="6.20597015" height="8.53548387"></rect>
                        <rect id="Rectangle" fill="#FFFFFF" opacity="0.4" x="74.8197015" y="107.574968" width="6.20597015" height="1"></rect>
                        <rect id="Rectangle" fill="#FFFFFF" opacity="0.4" x="88.3808955" y="107.574968" width="6.20597015" height="1"></rect>
                        <rect id="Rectangle" fill="#FFFFFF" opacity="0.4" x="128.821493" y="20.7917419" width="8.27462687" height="11.2110968"></rect>
                        <rect id="Rectangle" fill="#FFFFFF" opacity="0.4" x="128.821493" y="36.8802581" width="8.27462687" height="11.2110968"></rect>
                        <rect id="Rectangle" fill="#FFFFFF" opacity="0.4" x="128.821493" y="52.9687742" width="8.27462687" height="11.2110968"></rect>
                        <rect id="Rectangle" fill="#FFFFFF" opacity="0.4" x="128.821493" y="69.0642581" width="8.27462687" height="11.2110968"></rect>
                        <rect id="Rectangle" fill="#FFFFFF" opacity="0.4" x="128.821493" y="85.1527742" width="8.27462687" height="11.2110968"></rect>
                        <rect id="Rectangle" fill="#FFFFFF" opacity="0.4" x="128.821493" y="101.24129" width="8.2680597" height="6.48"></rect>
                        <rect id="Rectangle" fill="#FFFFFF" opacity="0.4" x="154.899701" y="43.7086452" width="30.7868657" height="9.504"></rect>
                        <rect id="Rectangle" fill="#FFFFFF" opacity="0.4" x="155.011343" y="64.1868387" width="30.7868657" height="9.504"></rect>
                        <rect id="Rectangle" fill="#FFFFFF" opacity="0.4" x="155.129552" y="84.6650323" width="30.7868657" height="9.504"></rect>
                        <polygon id="Path" fill="#FFFFFF" opacity="0.4" points="181.266866 107.72129 185.423881 107.72129 186.02806 107.72129 186.02806 106.648258 186.02806 105.414968 186.02806 105.143226 185.949254 105.143226 181.693731 105.143226 179.749851 105.143226 155.241194 105.143226 155.241194 107.72129 175.921194 107.72129 179.861493 107.72129 180.583881 107.72129"></polygon>
                        <rect id="Rectangle" fill="#FFFFFF" opacity="0.4" x="7.27641791" y="23.9620645" width="4.13731343" height="9.26709677"></rect>
                        <rect id="Rectangle" fill="#FFFFFF" opacity="0.4" x="209.466269" y="66.6255484" width="10.3367164" height="14.1375484"></rect>
                        <rect id="Rectangle" fill="#FFFFFF" opacity="0.4" x="209.466269" y="87.1037419" width="10.3367164" height="14.1375484"></rect>
                        <rect id="Rectangle" fill="#FFFFFF" opacity="0.4" x="209.466269" y="107.574968" width="10.3432836" height="1"></rect>
                        <path d="M61.1928358,11.9357419 L59.6101493,11.9357419 C60.0258374,11.9697439 60.4244196,11.7537006 60.6420713,11.3764099 C60.8597229,10.9991192 60.8597229,10.5242356 60.6420713,10.1469449 C60.4244196,9.7696542 60.0258374,9.55361095 59.6101493,9.5876129 L46.8041791,9.5876129 C46.3884909,9.55361095 45.9899087,9.7696542 45.7722571,10.1469449 C45.5546055,10.5242356 45.5546055,10.9991192 45.7722571,11.3764099 C45.9899087,11.7537006 46.3884909,11.9697439 46.8041791,11.9357419 L48.3868657,11.9357419 C47.9711775,11.90174 47.5725953,12.1177832 47.3549437,12.4950739 C47.1372921,12.8723646 47.1372921,13.3472483 47.3549437,13.724539 C47.5725953,14.1018297 47.9711775,14.3178729 48.3868657,14.283871 L46.1737313,14.283871 C45.7580432,14.249869 45.359461,14.4659123 45.1418093,14.843203 C44.9241577,15.2204937 44.9241577,15.6953773 45.1418093,16.072668 C45.359461,16.4499587 45.7580432,16.666002 46.1737313,16.632 L58.9797015,16.632 C59.5578506,16.5847093 60.0042423,16.0731702 60.0042423,15.4579355 C60.0042423,14.8427007 59.5578506,14.3311617 58.9797015,14.283871 L61.1928358,14.283871 C61.7709849,14.2365802 62.2173766,13.7250412 62.2173766,13.1098065 C62.2173766,12.4945717 61.7709849,11.9830327 61.1928358,11.9357419 L61.1928358,11.9357419 Z" id="Path" fill="#252223" opacity="0.1"></path>
                        <path d="M117.716418,41.4371613 L116.133731,41.4371613 C116.71188,41.3898706 117.158272,40.8783315 117.158272,40.2630968 C117.158272,39.647862 116.71188,39.136323 116.133731,39.0890323 L103.327761,39.0890323 C102.749612,39.136323 102.30322,39.647862 102.30322,40.2630968 C102.30322,40.8783315 102.749612,41.3898706 103.327761,41.4371613 L104.910448,41.4371613 C104.49476,41.4031593 104.096177,41.6192026 103.878526,41.9964933 C103.660874,42.373784 103.660874,42.8486676 103.878526,43.2259583 C104.096177,43.603249 104.49476,43.8192923 104.910448,43.7852903 L102.697313,43.7852903 C102.119164,43.8325811 101.672773,44.3441201 101.672773,44.9593548 C101.672773,45.5745896 102.119164,46.0861286 102.697313,46.1334194 L115.503284,46.1334194 C116.081433,46.0861286 116.527824,45.5745896 116.527824,44.9593548 C116.527824,44.3441201 116.081433,43.8325811 115.503284,43.7852903 L117.716418,43.7852903 C118.132106,43.8192923 118.530688,43.603249 118.74834,43.2259583 C118.965992,42.8486676 118.965992,42.373784 118.74834,41.9964933 C118.530688,41.6192026 118.132106,41.4031593 117.716418,41.4371613 L117.716418,41.4371613 Z" id="Path" fill="#252223" opacity="0.1"></path>
                        <path d="M213.991045,2.91948387 L212.408358,2.91948387 C212.986507,2.87219314 213.432899,2.36065409 213.432899,1.74541935 C213.432899,1.13018462 212.986507,0.618645571 212.408358,0.571354839 L199.602388,0.571354839 C199.1867,0.537352888 198.788118,0.753396135 198.570466,1.13068683 C198.352814,1.50797753 198.352814,1.98286118 198.570466,2.36015188 C198.788118,2.73744257 199.1867,2.95348582 199.602388,2.91948387 L201.185075,2.91948387 C200.769386,2.88548192 200.370804,3.10152517 200.153153,3.47881586 C199.935501,3.85610656 199.935501,4.33099022 200.153153,4.70828091 C200.370804,5.08557161 200.769386,5.30161485 201.185075,5.2676129 L198.985075,5.2676129 C198.569386,5.23361095 198.170804,5.4496542 197.953153,5.8269449 C197.735501,6.20423559 197.735501,6.67911925 197.953153,7.05640994 C198.170804,7.43370064 198.569386,7.64974389 198.985075,7.61574194 L211.791045,7.61574194 C212.369194,7.5684512 212.815586,7.05691216 212.815586,6.44167742 C212.815586,5.82644268 212.369194,5.31490364 211.791045,5.2676129 L214.004179,5.2676129 C214.582328,5.22032217 215.02872,4.70878313 215.02872,4.09354839 C215.02872,3.47831365 214.582328,2.9667746 214.004179,2.91948387 L213.991045,2.91948387 Z" id="Path" fill="#252223" opacity="0.1"></path>
                        <path d="M91.7301493,87.1455484 L91.4543284,87.3615484 C91.5558252,87.3044078 91.6487761,87.2316164 91.7301493,87.1455484 L91.7301493,87.1455484 Z" id="Path" fill="url(#linearGradient-5)"></path>
                        <path d="M91.9402985,87.3754839 L91.6644776,87.5914839 C91.7659745,87.5343433 91.8589254,87.4615519 91.9402985,87.3754839 L91.9402985,87.3754839 Z" id="Path" fill="url(#linearGradient-6)"></path>
                        <path d="M91.9402985,87.1455484 L91.6644776,87.3615484 C91.7659745,87.3044078 91.8589254,87.2316164 91.9402985,87.1455484 L91.9402985,87.1455484 Z" id="Path" fill="url(#linearGradient-6)"></path>
                        <circle id="Oval" fill="#F2F2F2" transform="translate(80.308956, 82.626845) rotate(-25.740000) translate(-80.308956, -82.626845) " cx="80.3089557" cy="82.6268446" r="1"></circle>
                    </g>
                    <path d="M412.501952,333 L404.006829,350.677255 C404.006829,350.677255 401.741463,357.158915 404.006829,361.283608 C406.272196,365.408301 405.705854,373.955774 405.705854,373.955774 C405.705854,373.955774 410.236586,387.820288 413.921138,394.288084 C417.605689,400.755879 415.340323,410.232274 415.340323,410.232274 L430.065203,412 C430.065203,412 424.401788,400.506318 426.067498,391.958845 C427.733208,383.411372 421.250264,367.806862 421.250264,362.489821 C421.250264,361.311337 419.831078,358.656283 422.669449,354.829677 C425.507819,351.003071 436.261646,341.277115 435.995132,335.675851 L412.501952,333 Z" id="Path" fill="#F7BBC3" fill-rule="nonzero"></path>
                    <path d="M486.005483,328 C486.005483,328 491.378673,335.866542 492.004228,343.524238 C492.19246,345.915024 492.634218,348.275877 493.321186,350.562357 C494.147882,353.220205 494.221128,356.075665 493.531899,358.776976 C492.977618,360.939267 492.611733,363.150662 492.438824,365.383479 C492.093667,369.689599 491.130013,373.914998 489.581025,377.914254 C487.019541,384.57645 483.654713,393.668223 483.457169,395.499109 C483.174023,398.457764 481.778047,405.558536 481.778047,405.558536 L470.583903,410 C470.583903,410 473.942146,401.416419 473.942146,393.132184 C473.942146,384.84795 471.703317,376.563715 477.893021,362.946939 C477.893021,362.946939 478.176167,359.396553 475.917583,354.070974 C473.659,348.745394 465,334.836234 465,334.836234 L486.005483,328 Z" id="Path" fill="#F7BBC3" fill-rule="nonzero"></path>
                    <path d="M467.830304,338.543437 C466.909024,339.607219 471.653615,346.381834 471.653615,346.381834 C471.653615,346.381834 464.382084,345.786956 463.822736,340.43305 C463.77001,339.987801 463.675209,339.54934 463.539771,339.124318 C461.855145,333.742418 453.72156,326.106978 450.115407,325.56109 C446.167064,324.966212 438.369088,335.079145 435.289381,342.217686 C435.111705,342.630601 434.93403,343.008524 434.749774,343.365451 C431.742453,349.188261 428.01785,347.87253 428.01785,347.87253 C429.992021,345.283059 430.400016,343.232478 429.781443,341.573817 C427.33347,335.156129 409,335.34509 409,335.34509 C409,335.34509 417.390228,314.818286 420.746319,312.438772 C424.10241,310.059258 429.419511,292.205908 429.419511,292.205908 C429.419511,292.205908 469.422802,287.44688 469.699186,289.525455 C469.97557,291.604031 477.81303,307.973685 480.609772,310.647138 C483.406515,313.320592 489,333.273514 489,333.273514 C479.491075,330.299122 469.001645,337.584632 467.882948,338.480449 L467.830304,338.543437 Z" id="Path" fill="#000000" fill-rule="nonzero" opacity="0.1"></path>
                    <path d="M467.817142,338.549077 C466.895862,339.61283 471.640454,346.38726 471.640454,346.38726 C471.640454,346.38726 464.368923,345.792398 463.809575,340.438639 C463.756849,339.993402 463.662048,339.554953 463.52661,339.129942 C461.841984,333.74819 453.708398,326.11296 450.102246,325.567086 C446.153903,324.972224 438.355927,335.08488 435.276219,342.223225 C435.098544,342.63613 434.920869,343.014042 434.736613,343.370959 C431.729292,349.19361 428.01785,347.870916 428.01785,347.870916 C429.992021,345.281516 430.400016,343.230992 429.781443,341.572376 C427.33347,335.154864 409,335.34382 409,335.34382 C409,335.34382 417.390228,314.817578 420.746319,312.43813 C424.10241,310.058681 429.419511,292.20582 429.419511,292.20582 C429.419511,292.20582 469.422802,287.446923 469.699186,289.525441 C469.97557,291.603959 477.81303,307.973165 480.609772,310.646545 C483.406515,313.319925 489,333.258303 489,333.258303 C479.491075,330.283993 469.001645,337.569304 467.882948,338.465096 L467.817142,338.549077 Z" id="Path" fill="#8499F0" fill-rule="nonzero"></path>
                    <path d="M415.432442,405 L407.819714,418.489743 C407.819714,418.489743 404.218483,421.969647 401.45081,421.389663 C398.683137,420.809679 395.915464,429.509438 407.266179,427.769486 C418.616894,426.029534 431.901724,419.649711 431.901724,419.649711 C431.901724,419.649711 433.145549,407.89992 426.783157,405.320697 L415.432442,405 Z" id="Path" fill="#000000" fill-rule="nonzero" opacity="0.1"></path>
                    <path d="M483.521969,399.511289 L489.582735,414.469753 C489.582735,414.469753 491.27365,418.65004 494.655478,418.65004 C498.037306,418.65004 499.164582,426.056117 488.170325,424.871702 C477.176067,423.687287 469,414.504588 469,414.504588 C469,414.504588 469.848773,400.291609 474.921515,399.399815 C477.766514,398.8315 480.691178,398.869408 483.521969,399.511289 L483.521969,399.511289 Z" id="Path" fill="#000000" fill-rule="nonzero" opacity="0.1"></path>
                    <path d="M415.432442,405 L407.819714,418.489743 C407.819714,418.489743 404.218483,421.969647 401.45081,421.389663 C398.683137,420.809679 395.915464,429.509438 407.266179,427.769486 C418.616894,426.029534 431.901724,419.649711 431.901724,419.649711 C431.901724,419.649711 433.145549,407.89992 426.783157,405.320697 L415.432442,405 Z" id="Path" fill="#B77983" fill-rule="nonzero"></path>
                    <path d="M483.521969,400.511289 L489.582735,415.469753 C489.582735,415.469753 491.27365,419.65004 494.655478,419.65004 C498.037306,419.65004 499.164582,427.056117 488.170325,425.871702 C477.176067,424.687287 469,415.504588 469,415.504588 C469,415.504588 469.848773,401.291609 474.921515,400.399815 C477.766514,399.8315 480.691178,399.869408 483.521969,400.511289 Z" id="Path" fill="#B77983" fill-rule="nonzero"></path>
                    <g id="Group" opacity="0.1" transform="translate(428.000000, 289.000000)" fill="#000000" fill-rule="nonzero">
                        <path d="M40.1353763,0.645529412 C40.4174194,2.72788235 48.2227957,18.9424706 51.0104301,21.594 C53.5684946,24.0303529 58.4812903,40.9043529 59.2683871,43.6391765 C59.7734409,43.7432941 60.2719355,43.8612941 60.7704301,44.014 C60.7704301,44.014 55.1951613,24.2455294 52.4075269,21.5870588 C49.6198925,18.9285882 41.8145161,2.70011765 41.5324731,0.638588235 C41.48,0.229058824 39.8467742,0.0832941176 37.2821505,0.124941176 C39.0268817,0.173529412 40.0894624,0.319294118 40.1353763,0.645529412 Z" id="Path"></path>
                        <path d="M20.6153763,36.3509412 C16.6798925,35.7609412 8.90731183,45.7909412 5.83763441,52.8709412 C5.66053763,53.2804706 5.48344086,53.6552941 5.29978495,54.0092941 C3.56817204,57.3410588 1.60698925,58.3128235 0.249247312,58.5418824 C1.14784946,58.7154118 4.18473118,58.8611765 6.69688172,54.0092941 C6.88053763,53.6552941 7.05763441,53.2804706 7.23473118,52.8709412 C10.0486022,46.374 16.843871,37.406 20.9630108,36.4203529 L20.6153763,36.3509412 Z" id="Path"></path>
                        <path d="M39.6696774,49.2337647 L39.7155914,49.1851765 C40.6141935,48.4910588 47.5865591,43.6322353 55.227957,43.3337647 C47.061828,43.0352941 39.276129,48.4285882 38.3184946,49.1851765 L38.2725806,49.2337647 C37.4658065,50.1638824 41.0208602,55.4808235 41.8932258,56.7302353 C42.4142403,56.8555556 42.9422062,56.9459704 43.4739785,57.0009412 C43.4739785,57.0009412 38.7513978,50.2818824 39.6696774,49.2337647 Z" id="Path"></path>
                    </g>
                    <path d="M396,178.302544 C396,178.302544 396,159.992329 407.337741,159.088469 C418.675482,158.18461 422.677038,164.490442 420.376144,165.090661 C418.075249,165.69088 408.471515,169.892415 408.471515,169.892415 L402.235758,181 L396,178.302544 Z" id="Path" fill="#F7BBC3" fill-rule="nonzero"></path>
                    <path d="M498,182.302544 C498,182.302544 498,163.992329 486.662259,163.088469 C475.324518,162.18461 471.322962,168.490442 473.623856,169.090661 C475.924751,169.69088 485.528485,173.892415 485.528485,173.892415 L491.764242,185 L498,182.302544 Z" id="Path" fill="#F7BBC3" fill-rule="nonzero"></path>
                    <path d="M446.489164,201 C446.489164,201 447.334155,212.834562 440.316768,219.642916 C433.299382,226.451269 456.615853,235 456.615853,235 L467,221.981982 C467,221.981982 458.583097,216.656429 463.039105,207.481163 L446.489164,201 Z" id="Path" fill="#F7BBC3" fill-rule="nonzero"></path>
                    <path d="M444.399267,214.275711 C444.399267,214.275711 441.874584,218.452967 435.711193,214.575081 C429.547802,210.697195 414.979788,210.697195 414.979788,210.697195 L400.411773,203.595859 C400.411773,203.595859 401.53239,178.142446 404.894239,176.95889 C404.894239,176.95889 398.17054,179.917779 396.206165,174 L385,205.371193 C385,205.371193 385.843758,212.180121 392.007149,214.839641 L415.263238,229.933459 C415.263238,229.933459 425.348786,236.443017 425.348786,252.720391 C425.348786,268.997766 427.326345,294.743588 427.326345,294.743588 C427.326345,294.743588 459.804448,315.483664 472.988172,291.220768 C472.988172,291.220768 467.661948,262.516057 471.307247,255.407759 C471.307247,255.407759 472.427864,236.763273 481.392796,233.212605 L504.629109,210.697195 C504.629109,210.697195 509.111575,207.738305 505.749725,199.154044 L497.90541,178.734224 C497.90541,178.734224 493.139494,185.835559 489.217336,182.284891 L493.699802,202.412304 L484.73487,211.288973 C484.73487,211.288973 476.330246,215.730788 472.124638,215.466229 C467.91903,215.201669 463.159706,217.241563 463.159706,217.241563 C463.159706,217.241563 461.182147,229.077122 452.230399,227.893566 C452.243583,227.886604 435.150885,226.995456 444.399267,214.275711 Z" id="Path" fill="#000000" fill-rule="nonzero" opacity="0.1"></path>
                    <path d="M444.399267,213.254473 C444.399267,213.254473 441.874584,217.431692 435.711193,213.55384 C429.547802,209.675988 414.979788,209.696874 414.979788,209.696874 L400.411773,202.595601 C400.411773,202.595601 401.53239,177.142409 404.894239,175.958864 C404.894239,175.958864 398.17054,178.917728 396.206165,173 L385,204.370919 C385,204.370919 385.843758,211.179787 392.007149,213.839284 L415.256646,228.960819 C415.256646,228.960819 425.342195,235.470319 425.342195,251.747552 C425.342195,268.024784 427.319753,293.770381 427.319753,293.770381 C427.319753,293.770381 459.804448,314.461542 472.988172,290.226706 C472.988172,290.226706 467.661948,261.522245 471.307247,254.41401 C471.307247,254.41401 472.427864,235.769687 481.392796,232.21905 L504.629109,209.696874 C504.629109,209.696874 509.111575,206.73801 505.749725,198.153824 L497.90541,177.734182 C497.90541,177.734182 493.139494,184.835456 489.217336,181.284819 L493.699802,201.412055 L484.73487,210.288647 C484.73487,210.288647 476.330246,214.730424 472.124638,214.465867 C467.91903,214.201309 463.159706,216.241185 463.159706,216.241185 C463.159706,216.241185 461.182147,228.07664 452.230399,226.893095 C452.243583,226.872209 435.150885,225.974107 444.399267,213.254473 Z" id="Path" fill="#000000" fill-rule="nonzero" opacity="0.1"></path>
                    <path d="M444.585,214.385 L444.415,214.615 L444.585,214.385 Z" id="Path" fill="#D39999" fill-rule="nonzero"></path>
                    <path d="M504.60536,210.704803 L481.350044,233.199723 C472.38541,236.750453 471.26483,255.395268 471.26483,255.395268 C467.619652,262.496728 472.945699,291.208907 472.945699,291.208907 C459.762414,315.479192 427.272206,294.759637 427.272206,294.759637 C427.272206,294.759637 427.206289,293.910247 427.100823,292.413371 C427.00854,291.104474 426.883299,289.294298 426.744874,287.142973 C426.560308,284.358087 426.349376,280.995336 426.151627,277.347135 C425.709986,269.375398 425.307896,260.087801 425.307896,252.735701 C425.307896,236.45804 415.222683,229.948368 415.222683,229.948368 L397.820745,218.61388 L392.006916,214.840359 C385.84373,212.173831 385,205.371746 385,205.371746 L396.205793,174 C398.03827,179.528 404.030073,177.307053 404.807887,176.993753 C401.512065,178.567214 400.411261,203.59638 400.411261,203.59638 L414.978792,210.697841 C414.978792,210.697841 429.546323,210.697841 435.7161,214.547946 C440.989415,217.820188 443.566747,215.31379 444.225911,214.485286 C435.366743,227.017275 452.247941,227.859703 452.247941,227.859703 C461.212575,229.04328 463.176885,217.207513 463.176885,217.207513 C463.176885,217.207513 467.942642,215.118848 472.141519,215.432148 C476.340395,215.745447 484.751332,211.254818 484.751332,211.254818 L493.715966,202.377993 L489.233649,182.250226 C493.188635,185.800956 497.921434,178.699496 497.921434,178.699496 L505.765489,199.119676 C509.107452,207.738899 504.60536,210.704803 504.60536,210.704803 Z" id="Path" fill="#D39999" fill-rule="nonzero"></path>
                    <path d="M446.273226,202 C446.356901,203.903835 446.265387,205.811849 446,207.696568 C448.546702,214.474138 455.333503,218.260218 461.993728,216.618818 C461.350499,213.930802 461.711385,211.080823 463,208.672106 L446.273226,202 Z" id="Path" fill="#000000" fill-rule="nonzero" opacity="0.1"></path>
                    <ellipse id="Oval" fill="#F7BBC3" fill-rule="nonzero" cx="459.5" cy="200.5" rx="13.5" ry="14.5"></ellipse>
                    <path d="M458.959274,193.055406 C458.842054,194.51778 458.744371,196.077183 459.376054,197.380151 C459.727638,198.035245 460.166316,198.632838 460.678494,199.154405 L463.517812,202.266281 C464.413011,203.103465 465.107374,204.156101 465.543106,205.336573 C466.363642,208.247459 463.941105,211.137553 464.019251,214.180122 C464.911449,215.668668 466.625764,216.342932 468.213107,215.829624 C468.839586,215.574391 469.429273,215.226772 469.964888,214.796953 L472.706523,212.800917 C474.822987,211.262305 477.037135,209.598942 478.098623,207.117758 C479.212209,204.504891 478.834501,201.483114 478.886599,198.613812 C479.008055,196.868022 479.031975,195.116096 478.958233,193.367287 C478.772549,191.699321 478.332634,190.07472 477.655793,188.557394 C476.429434,185.522596 474.419783,182.919996 471.859937,181.051466 C469.271313,179.192411 466.083355,178.534364 463.029397,179.228697 C462.543589,179.391141 462.040218,179.486638 461.531592,179.512855 C460.54825,179.512855 459.701664,178.819787 458.796469,178.410877 C456.429564,177.426914 453.73672,178.253449 452.225661,180.427705 C451.626539,181.328693 451.281392,182.402949 450.656221,183.276215 C449.724977,184.579183 448.207635,185.403934 447.575952,186.89403 C446.944269,188.384127 447.367562,190.089074 447.230805,191.696992 C447.036056,193.134172 446.620222,194.527403 446,195.820748 C447.536879,195.252432 448.285781,193.464316 449.256099,192.092041 C450.811072,190.031632 453.124725,188.78405 455.605492,188.668285 C456.452077,188.626701 458.021517,188.557394 458.692273,189.243531 C459.590957,190.109867 459.050444,192.001942 458.959274,193.055406 Z" id="Path" fill="#000000" fill-rule="nonzero" opacity="0.1"></path>
                    <path d="M458.894152,192.072133 C458.776932,193.533441 458.679249,195.091707 459.310932,196.393725 C459.662516,197.048342 460.101194,197.645498 460.613372,198.166686 L463.45269,201.276293 C464.347889,202.112867 465.042252,203.164735 465.477984,204.344347 C466.29852,207.253111 463.875983,210.141098 463.954129,213.181449 C464.846327,214.66891 466.560642,215.342682 468.147985,214.829749 C468.798709,214.572058 469.410745,214.215117 469.964888,213.770127 L472.706523,211.775546 C474.822987,210.238057 477.037135,208.575906 478.098623,206.096531 C479.212209,203.485569 478.834501,200.465995 478.886599,197.598785 C479.008055,195.854267 479.031975,194.103618 478.958233,192.356084 C478.772549,190.689334 478.332634,189.065918 477.655793,187.549697 C476.429434,184.517112 474.419783,181.916409 471.859937,180.049242 C469.271313,178.191542 466.083355,177.533975 463.029397,178.227801 C462.543589,178.390127 462.040218,178.485554 461.531592,178.511752 C460.54825,178.511752 459.701664,177.819189 458.796469,177.410577 C456.429564,176.427332 453.73672,177.253264 452.225661,179.425935 C451.626539,180.326267 451.281392,181.399739 450.656221,182.272368 C449.724977,183.574387 448.207635,184.398536 447.575952,185.887547 C446.944269,187.376557 447.367562,189.080261 447.230805,190.687007 C447.036056,192.123139 446.620222,193.515354 446,194.807756 C447.536879,194.239855 448.285781,192.453043 449.256099,191.081768 C450.811072,189.022861 453.124725,187.776189 455.605492,187.660508 C456.452077,187.618954 458.021517,187.549697 458.692273,188.235335 C459.545371,189.128741 459.004859,190.99866 458.894152,192.072133 Z" id="Path" fill="#74585E" fill-rule="nonzero"></path>
                    <g id="Group" opacity="0.1" transform="translate(395.000000, 173.000000)" fill="#000000" fill-rule="nonzero">
                        <path d="M49.056,41.0758065 C49.1350588,40.9709677 49.1745882,40.9080645 49.1745882,40.9080645 L49.056,41.0758065 Z" id="Path"></path>
                        <path d="M96.4715294,9.81989247 C95.5502174,9.83990897 94.6566795,9.48474952 93.9745882,8.82741935 L94.2447059,10.0295699 C94.9905354,10.1884439 95.7637357,10.1156394 96.4715294,9.81989247 L96.4715294,9.81989247 Z" id="Path"></path>
                        <path d="M46.8291765,42.6204301 C39.8127059,54.0478495 55.6112941,54.8795699 55.6112941,54.8795699 C56.8151537,55.0557345 58.0404349,54.9628872 59.2084706,54.6069892 C58.4797038,54.6982054 57.743355,54.6982054 57.0145882,54.6069892 C57.0145882,54.6069892 40.0828235,53.7193548 49.056,41.1037634 C48.4713956,41.8317607 47.6964712,42.3595538 46.8291765,42.6204301 L46.8291765,42.6204301 Z" id="Path"></path>
                        <path d="M75.4945882,42.3967742 C76.6302708,42.427137 77.7641434,42.2835436 78.8611765,41.9704301 C78.2088517,42.0906915 77.5461202,42.1352193 76.8847059,42.1032258 C75.1404401,42.0249355 73.3945612,42.2108562 71.6997647,42.6553763 C72.9510522,42.4140356 74.2244781,42.3272567 75.4945882,42.3967742 L75.4945882,42.3967742 Z" id="Path"></path>
                        <path d="M110.497882,25.7623656 L102.657882,5.26290323 C102.342858,5.71824172 102.004136,6.15458267 101.643294,6.56989247 L109.101176,26.0349462 C112.461176,34.6526882 107.981176,37.6231183 107.981176,37.6231183 L84.7378824,60.2053763 C75.7778824,63.7698925 74.6578824,82.4870968 74.6578824,82.4870968 C71.0145882,89.616129 76.3378824,118.439785 76.3378824,118.439785 C72.8065882,124.974731 67.8851765,128.224731 62.5684706,129.566667 C68.4122353,128.51129 73.8936471,125.247312 77.7214118,118.139247 C77.7214118,118.139247 72.3981176,89.3225806 76.0414118,82.1865591 C76.0414118,82.1865591 77.1614118,63.4693548 86.1214118,59.9048387 L109.364706,37.3505376 C109.364706,37.3505376 113.864471,34.3731183 110.497882,25.7623656 Z" id="Path"></path>
                        <path d="M9.68470588,3.48064516 C9.11016973,3.71542354 8.51708784,3.89552383 7.91247059,4.0188172 C4.84235294,6.87741935 3.808,30.5150538 3.808,30.5150538 L18.368,37.644086 C18.368,37.644086 32.928,37.644086 39.0945882,41.5091398 C42.112,43.4032258 44.2531765,43.3682796 45.6828235,42.844086 C44.3651765,42.927957 42.672,42.5575269 40.5242353,41.2155914 C34.3642353,37.3505376 19.7976471,37.3505376 19.7976471,37.3505376 L5.19811765,30.2284946 C5.19811765,30.2284946 6.31811765,4.6688172 9.68470588,3.48064516 Z" id="Path"></path>
                        <path d="M7.24705882,4.13763441 C5.11905882,4.4311828 2.19388235,4.10268817 1.008,0.510215054 L0.349176471,2.36236559 C2.18070588,5.12311828 5.53411765,4.61989247 7.24705882,4.13763441 Z" id="Path"></path>
                    </g>
                    <path d="M425.969503,277 C425.533699,268.991108 425.136923,259.660225 425.136923,252.273859 C425.136923,235.920332 415.184983,229.38032 415.184983,229.38032 L398,218 C408.016985,220.797866 421.344778,225.61719 422.541613,231.289864 C424.492974,240.508832 428.070468,241.397155 426.691507,257.170124 C426.108662,263.760542 425.867621,270.380753 425.969503,277 L425.969503,277 Z" id="Path" fill="#000000" fill-rule="nonzero" opacity="0.1"></path>
                    <path d="M429.550453,300 C429.550453,300 432.113429,308.521739 425,314" id="Path" fill="#000000" fill-rule="nonzero" opacity="0.1"></path>
                    <path d="M468,300 C468,300 468.802508,306.518248 472,309" id="Path" fill="#000000" fill-rule="nonzero" opacity="0.1"></path>
                    <path d="M431.900794,418.70109 C431.900794,418.70109 418.614499,424.938421 407.262531,426.639512 C401.505136,427.500063 399.381934,425.738934 399.049777,423.871071 C398.672029,426.052469 400.352355,428.814239 407.262531,427.773572 C418.614499,426.072482 431.900794,419.83515 431.900794,419.83515 C431.985701,418.892766 432.016147,417.946065 431.991975,417 C431.946384,418.040667 431.900794,418.70109 431.900794,418.70109 Z" id="Path" fill="#000000" fill-rule="nonzero" opacity="0.1"></path>
                    <path d="M488.564658,425.265634 C477.508693,424.059017 469.286735,414.704186 469.286735,414.704186 C469.286735,414.704186 469.706835,407.563852 471.720648,403 C469.46011,407.50707 469,415.307494 469,415.307494 C469,415.307494 477.221958,424.662325 488.277923,425.868942 C493.925935,426.486446 496.393189,424.818476 497,423.029843 C496.073113,424.570055 493.565849,425.81216 488.564658,425.265634 Z" id="Path" fill="#000000" fill-rule="nonzero" opacity="0.1"></path>
                    <rect id="Rectangle" fill="#FFFFFF" fill-rule="nonzero" x="333" y="231" width="70" height="49"></rect>
                    <path d="M571.945259,357 C571.945259,357 559.385686,312.8125 574.297665,280.298611 C580.631496,266.709355 582.543295,251.358788 579.746402,236.548611 C578.361378,229.524029 576.358036,222.645734 573.761504,216" id="Path" stroke="#535461" stroke-width="2"></path>
                    <path d="M583,194.829778 C583,200.259825 573.5,216 573.5,216 C573.5,216 564,200.259825 564,194.829778 C564,189.400941 568.253295,185 573.5,185 C578.746705,185 583,189.400941 583,194.829778 Z" id="Path" fill="#6C63FF" fill-rule="nonzero"></path>
                    <path d="M598.588651,224.788209 C595.811489,229.269286 580,237 580,237 C580,237 580.288196,218.76783 583.065359,214.286752 C585.876475,209.901255 591.537028,208.684037 595.778051,211.553075 C600.019074,214.422113 601.270544,220.315293 598.588651,224.788209 L598.588651,224.788209 Z" id="Path" fill="#6C63FF" fill-rule="nonzero"></path>
                    <path d="M597.769811,276.677136 C593.222253,279.116998 576,277.434814 576,277.434814 C576,277.434814 584.984676,261.593089 589.512744,259.153227 C592.448646,257.479136 596.001537,257.637061 598.797553,259.565935 C601.593569,261.494809 603.194412,264.892265 602.981053,268.444544 C602.767694,271.996824 600.773579,275.147077 597.769811,276.677136 L597.769811,276.677136 Z" id="Path" fill="#6C63FF" fill-rule="nonzero"></path>
                    <path d="M589.167072,315.217206 C585.125734,318.514704 568,320 568,320 C568,320 574.303714,302.375439 578.345052,299.085048 C580.954498,296.868875 584.446338,296.38021 587.475188,297.807334 C590.504039,299.234457 592.597155,302.354621 592.948073,305.965648 C593.298991,309.576675 591.852939,313.114953 589.167072,315.217206 L589.167072,315.217206 Z" id="Path" fill="#6C63FF" fill-rule="nonzero"></path>
                    <path d="M559.799524,238.142225 C563.543937,242.000066 581,246 581,246 C581,246 576.726413,227.61309 572.961905,223.748145 C569.203819,219.973076 563.282833,220.103243 559.675453,224.040234 C556.068073,227.977225 556.114409,234.258482 559.779429,238.13512 L559.799524,238.142225 Z" id="Path" fill="#6C63FF" fill-rule="nonzero"></path>
                    <path d="M550.928164,283.663897 C555.538813,286.128177 573,284.429158 573,284.429158 C573,284.429158 563.890675,268.428884 559.299785,265.964603 C554.736205,263.648869 549.272931,265.641906 546.997541,270.452538 C544.722151,275.263169 546.467692,281.130171 550.928164,283.663897 L550.928164,283.663897 Z" id="Path" fill="#6C63FF" fill-rule="nonzero"></path>
                    <path d="M546.588733,329.378492 C550.676694,332.564792 568,334 568,334 C568,334 561.623563,316.969777 557.535602,313.790344 C553.44676,310.733162 547.786934,311.684843 544.80509,315.930936 C541.823246,320.177029 542.616231,326.155644 546.588733,329.378492 Z" id="Path" fill="#6C63FF" fill-rule="nonzero"></path>
                    <path d="M527.177102,333 C527.177102,333 519.106602,305.115611 528.691177,284.5927 C532.764658,276.011756 533.993074,266.317937 532.192047,256.966241 C531.302745,252.5338 530.016228,248.193581 528.348626,244" id="Path" stroke="#535461" stroke-width="2"></path>
                    <path d="M534,230.886168 C534,234.246931 528,244 528,244 C528,244 522,234.246931 522,230.886168 C522.108556,227.60386 524.761277,225 527.996622,225 C531.231966,225 533.884687,227.60386 533.993243,230.886168 L534,230.886168 Z" id="Path" fill="#6C63FF" fill-rule="nonzero"></path>
                    <path d="M543.945307,249.969498 C542.164225,252.911152 532,258 532,258 C532,258 532.187482,246.004348 533.968565,243.062693 C535.09128,241.081588 537.133353,239.910216 539.298419,240.005388 C541.463485,240.10056 543.408685,241.447204 544.375433,243.520157 C545.342181,245.593111 545.177383,248.064103 543.945307,249.969498 L543.945307,249.969498 Z" id="Path" fill="#6C63FF" fill-rule="nonzero"></path>
                    <path d="M542.907843,281.198463 C540.016701,282.679765 529,281.654248 529,281.654248 C529,281.654248 534.742678,272.049248 537.627219,270.574649 C540.501244,269.191606 543.937061,270.388227 545.370127,273.271339 C546.803193,276.15445 545.710586,279.672011 542.907843,281.198463 Z" id="Path" fill="#6C63FF" fill-rule="nonzero"></path>
                    <path d="M537.743095,306.052376 C535.120926,308.087143 524,309 524,309 C524,309 528.09298,298.136299 530.715149,296.108502 C533.339219,294.197355 536.938999,294.817146 538.840413,297.507467 C540.741828,300.197787 540.255677,303.983484 537.743095,306.052376 Z" id="Path" fill="#6C63FF" fill-rule="nonzero"></path>
                    <path d="M519.91175,258.002393 C522.226857,260.444081 533,263 533,263 C533,263 530.369196,251.384133 528.047511,248.942445 C526.568094,247.274733 524.368843,246.615053 522.310496,247.221589 C520.25215,247.828124 518.662069,249.604413 518.162576,251.855254 C517.663083,254.106094 518.333619,256.473512 519.91175,258.030951 L519.91175,258.002393 Z" id="Path" fill="#6C63FF" fill-rule="nonzero"></path>
                    <path d="M513.092157,286.198463 C515.983299,287.679765 527,286.654248 527,286.654248 C527,286.654248 521.257322,277.049248 518.372781,275.574649 C515.498756,274.191606 512.062939,275.388227 510.629873,278.271339 C509.196807,281.15445 510.289414,284.672011 513.092157,286.198463 Z" id="Path" fill="#6C63FF" fill-rule="nonzero"></path>
                    <path d="M511.491897,315.097052 C514.06923,317.100978 525,318 525,318 C525,318 520.977006,307.300954 518.399673,305.303891 C516.736459,303.931673 514.49359,303.616793 512.544993,304.481944 C510.596396,305.347094 509.250332,307.25541 509.031291,309.463323 C508.81225,311.671236 509.754883,313.82946 511.491897,315.097052 L511.491897,315.097052 Z" id="Path" fill="#6C63FF" fill-rule="nonzero"></path>
                </g>
                <text id="IMAGE-UPLOADER" font-family="Poppins-SemiBold, Poppins" font-size="24" font-weight="500" fill="#FFFFFF">
                    <tspan x="371.468" y="386">IMAGE UPLOADER</tspan>
                </text>
            </g>
        </g>
    </g>
</svg>